Coordinates
version=1
nRows=176
nColumns=3
inDegrees=yes

Units are S.I. units (second, meters, Newtons, ...)
If the header above contains a line with 'inDegrees', this indicates whether rotational values are in degrees (yes) or radians (no).

endheader
time	r_shoulder_elev	r_elbow_flex
     18.06670000	     31.93216372	     49.11881422
     18.10000000	     31.03618166	     50.75669384
     18.13330000	     30.54766615	     52.31360971
     18.16670000	     30.82544295	     52.47697346
     18.20000000	     31.76975627	     51.08857295
     18.23330000	     32.98236202	     49.18124316
     18.26670000	     34.12448912	     47.95658752
     18.30000000	     35.23815813	     47.29100461
     18.33330000	     36.63098376	     45.89017525
     18.36670000	     38.42152054	     42.95634248
     18.40000000	     40.25733360	     39.07971555
     18.43330000	     41.56138406	     35.64173747
     18.46670000	     42.14134009	     33.34197219
     18.50000000	     42.32908184	     31.78924146
     18.53330000	     42.50375559	     30.47195476
     18.56670000	     42.68708437	     29.52722346
     18.60000000	     42.65324281	     29.42727830
     18.63330000	     42.34108871	     30.11916250
     18.66670000	     41.99691110	     30.87104571
     18.70000000	     41.91039211	     31.03052303
     18.73330000	     42.17008836	     30.59475079
     18.76670000	     42.64820498	     30.10566222
     18.80000000	     43.14275320	     30.11654397
     18.83330000	     43.51813754	     30.73765536
     18.86670000	     43.78992746	     31.59111999
     18.90000000	     44.10109181	     32.07737625
     18.93330000	     44.58229422	     31.73944042
     18.96670000	     45.18577510	     30.65746915
     19.00000000	     45.70145574	     29.40404642
     19.03330000	     45.96177645	     28.49963718
     19.06670000	     46.00171289	     27.97699526
     19.10000000	     46.02224941	     27.42912599
     19.13330000	     46.19315498	     26.47305849
     19.16670000	     46.45824263	     25.29396090
     19.20000000	     46.57348035	     24.60783790
     19.23330000	     46.38963670	     24.88438322
     19.26670000	     46.01642481	     25.83917390
     19.30000000	     45.65964539	     26.82617643
     19.33330000	     45.37679672	     27.52969232
     19.36670000	     45.07247483	     28.07474329
     19.40000000	     44.68910558	     28.62494141
     19.43330000	     44.24368072	     29.31072006
     19.46670000	     43.66021549	     30.53306465
     19.50000000	     42.72947451	     32.78998495
     19.53330000	     41.34070674	     35.99344139
     19.56670000	     39.64115057	     39.38326000
     19.60000000	     37.96783096	     42.08083608
     19.63330000	     36.61101718	     43.93180250
     19.66670000	     35.48460828	     46.28310020
     19.70000000	     34.30847130	     50.19291321
     19.73330000	     33.15100570	     54.21047168
     19.76670000	     32.31390440	     56.42275713
     19.80000000	     32.10718037	     56.04457088
     19.83330000	     32.51909170	     53.94052499
     19.86670000	     33.04060207	     52.38001863
     19.90000000	     33.17077633	     52.83857270
     19.93330000	     33.00310105	     54.43549328
     19.96670000	     33.00455318	     55.50473914
     20.00000000	     33.58224532	     55.11405683
     20.03330000	     34.82859989	     53.33872841
     20.06670000	     36.45574262	     50.95875528
     20.10000000	     38.02189055	     48.77275109
     20.13330000	     39.36212131	     46.85574026
     20.16670000	     40.77808310	     44.43502792
     20.20000000	     42.65291438	     40.87275618
     20.23330000	     44.83894875	     36.91644585
     20.26670000	     46.70331476	     34.17530149
     20.30000000	     47.85315188	     33.17784691
     20.33330000	     48.37577188	     33.17014884
     20.36670000	     48.50545440	     33.35323373
     20.40000000	     48.31657911	     33.68013967
     20.43330000	     47.63797115	     34.83658370
     20.46670000	     46.27529744	     37.41548747
     20.50000000	     44.36031242	     41.02737780
     20.53330000	     42.42742920	     44.36517428
     20.56670000	     41.08750575	     46.08136772
     20.60000000	     40.51897390	     45.76994886
     20.63330000	     40.22753041	     44.35727854
     20.66670000	     39.46969969	     43.22407931
     20.70000000	     37.88829104	     43.21117346
     20.73330000	     35.72996214	     44.52700187
     20.76670000	     33.55379172	     46.89875887
     20.80000000	     31.71012755	     49.47837646
     20.83330000	     30.06549900	     51.51032652
     20.86670000	     28.40708280	     52.80988488
     20.90000000	     26.94150396	     53.20170692
     20.93330000	     26.12482342	     52.48120187
     20.96670000	     26.03352243	     51.19863945
     21.00000000	     26.13907669	     50.79252841
     21.03330000	     25.91812379	     52.06733106
     21.06670000	     25.47937326	     53.98709148
     21.10000000	     25.31550987	     54.83814693
     21.13330000	     25.68127273	     53.92597722
     21.16670000	     26.29604483	     52.21682371
     21.20000000	     26.58640457	     51.66776468
     21.23330000	     26.37496787	     52.99719129
     21.26670000	     26.09442867	     54.84112077
     21.30000000	     26.13169169	     55.79884682
     21.33330000	     26.52736047	     55.21312874
     21.36670000	     27.27977347	     52.51867355
     21.40000000	     28.69481140	     47.19094136
     21.43330000	     30.78000820	     42.10757697
     21.46670000	     32.78045473	     42.88008175
     21.50000000	     35.43395204	     44.66084925
     21.53330000	     38.89754356	     43.46554944
     21.56670000	     42.57004351	     39.85686112
     21.60000000	     45.85777755	     35.64494351
     21.63330000	     48.35774052	     32.39393108
     21.66670000	     50.05328958	     30.51924398
     21.70000000	     51.27918257	     29.34575799
     21.73330000	     52.44564763	     27.85867105
     21.76670000	     53.76687743	     25.55314627
     21.80000000	     55.15373566	     22.82015190
     21.83330000	     56.37439399	     20.43266210
     21.86670000	     57.33405554	     18.68668101
     21.90000000	     58.06158922	     17.43126943
     21.93330000	     58.51716060	     16.80799575
     21.96670000	     58.64114554	     17.43153862
     22.00000000	     58.58177743	     19.44356243
     22.03330000	     58.60626833	     21.57377134
     22.06670000	     58.74282787	     21.56592112
     22.10000000	     58.75854998	     18.13694901
     22.13330000	     58.47247735	     13.05397013
     22.16670000	     57.88502745	     10.27764971
     22.20000000	     57.20119487	     11.85252476
     22.23330000	     56.75748154	     16.41277704
     22.26670000	     57.05602944	     20.93519030
     22.30000000	     58.52217473	     23.30261230
     22.33330000	     60.91855336	     23.52864589
     22.36670000	     63.31739237	     22.76224915
     22.40000000	     64.78983340	     21.90134479
     22.43330000	     64.75829383	     21.65176213
     22.46670000	     62.90139977	     22.97274491
     22.50000000	     59.32104461	     26.69445418
     22.53330000	     55.12471733	     32.26580393
     22.56670000	     52.36925173	     36.50427920
     22.60000000	     52.01812034	     36.47902229
     22.63330000	     52.69463015	     33.75949407
     22.66670000	     52.72646958	     31.81275574
     22.70000000	     52.06491189	     31.85630691
     22.73330000	     51.77166515	     32.49630007
     22.76670000	     52.29756141	     31.75575140
     22.80000000	     52.67036301	     29.41460870
     22.83330000	     51.67913829	     26.99254861
     22.86670000	     49.52102915	     26.09941445
     22.90000000	     47.86330586	     27.19674673
     22.93330000	     48.08733614	     28.92163276
     22.96670000	     49.72011781	     29.55267572
     23.00000000	     51.23601404	     28.60075264
     23.03330000	     51.82828386	     26.55827435
     23.06670000	     51.87305713	     24.09988548
     23.10000000	     52.05529165	     21.67460757
     23.13330000	     52.43632122	     19.89551909
     23.16670000	     52.48500489	     19.92725861
     23.20000000	     51.71229334	     23.06052923
     23.23330000	     50.29055834	     28.94317486
     23.26670000	     49.36002499	     33.34174401
     23.30000000	     49.63527412	     32.91951371
     23.33330000	     50.41502846	     29.88852529
     23.36670000	     50.88347396	     27.28251006
     23.40000000	     50.91334141	     26.09725555
     23.43330000	     50.73185987	     26.26631195
     23.46670000	     50.43629172	     27.66532787
     23.50000000	     49.89185207	     30.20987253
     23.53330000	     48.96360532	     33.51955657
     23.56670000	     47.61621283	     37.11401685
     23.60000000	     45.82227814	     41.07081922
     23.63330000	     43.79174525	     45.47429711
     23.66670000	     42.31123291	     49.15281505
     23.70000000	     42.12293910	     50.78458332
     23.73330000	     43.00302441	     50.75310964
     23.76670000	     44.37827927	     49.51612539
     23.80000000	     46.45751031	     45.12777638
     23.83330000	     49.45373191	     36.84655346
     23.86670000	     52.32018829	     28.66363866
     23.90000000	     53.87732901	     23.58162701
